<?xml version="1.0" standalone="no"?>
<!DOCTYPE svg PUBLIC "-//W3C//DTD SVG 20010904//EN"
 "http://www.w3.org/TR/2001/REC-SVG-20010904/DTD/svg10.dtd">
<svg version="1.0" xmlns="http://www.w3.org/2000/svg"
 width="360.000000pt" height="360.000000pt" viewBox="0 0 360.000000 360.000000"
 preserveAspectRatio="xMidYMid meet">
<metadata>
Created by potrace 1.14, written by Peter Selinger 2001-2017
</metadata>
<g transform="translate(0.000000,360.000000) scale(0.100000,-0.100000)"
fill="#000000" stroke="none">
<path d="M1519 3266 c-2 -3 -31 -8 -64 -11 -33 -4 -63 -9 -68 -12 -4 -2 -20
-7 -35 -9 -123 -22 -335 -121 -468 -219 -73 -54 -254 -229 -254 -246 0 -4 -6
-14 -14 -22 -27 -27 -104 -152 -139 -227 -41 -89 -84 -219 -103 -315 -27 -134
-24 -352 8 -505 6 -30 12 -62 13 -70 1 -8 7 -28 14 -43 6 -16 11 -34 11 -40 1
-7 9 -29 19 -50 l18 -39 49 82 c27 45 57 94 66 108 10 15 25 40 34 56 9 16 20
34 25 40 5 6 37 52 71 101 104 153 300 408 390 507 l33 37 137 -67 c75 -37
137 -70 138 -73 0 -5 -41 -54 -129 -154 -40 -46 -202 -254 -240 -310 -19 -28
-38 -52 -41 -55 -9 -8 -183 -279 -225 -350 -21 -36 -45 -76 -54 -90 -31 -50
-109 -206 -115 -230 -8 -27 -8 -27 42 35 l22 28 27 -32 c52 -62 55 -61 118 52
32 56 62 104 67 105 4 2 8 8 8 14 0 14 172 273 261 395 72 97 259 332 289 363
8 9 44 49 80 89 82 93 237 250 358 362 l92 86 143 -70 c78 -39 144 -72 147
-74 2 -3 -11 -18 -30 -34 -507 -440 -918 -952 -1235 -1541 -73 -135 -74 -140
-8 -76 l58 57 43 -24 42 -24 14 22 c7 12 41 69 76 127 109 181 323 486 428
612 180 213 274 317 413 457 108 108 262 249 359 327 19 16 37 31 40 34 11 12
159 128 223 175 38 28 81 60 95 71 l26 22 -29 43 c-143 212 -317 369 -528 475
-77 39 -249 98 -317 109 -25 4 -54 10 -65 12 -25 7 -330 15 -336 9z"/>
<path d="M3190 2515 c-30 -19 -60 -38 -66 -43 -5 -5 -21 -15 -34 -22 -13 -7
-29 -16 -34 -21 -6 -5 -96 -72 -201 -150 -104 -78 -192 -144 -195 -148 -3 -4
-32 -29 -65 -57 -33 -27 -76 -63 -95 -81 -19 -17 -46 -41 -60 -53 -51 -43
-263 -256 -338 -338 -42 -47 -86 -95 -97 -106 -11 -12 -36 -41 -56 -66 -20
-25 -46 -56 -58 -70 -93 -112 -311 -411 -311 -429 0 -5 -4 -11 -8 -13 -8 -3
-134 -201 -164 -258 -10 -19 -29 -53 -41 -75 -60 -104 -138 -255 -133 -255 4
0 30 24 59 53 86 85 245 229 280 253 27 19 49 23 147 27 197 9 329 42 505 127
186 89 354 224 465 375 25 33 47 62 50 65 25 23 101 172 139 268 75 194 99
387 78 622 -7 74 -22 48 147 254 55 67 105 126 111 131 14 13 39 45 34 45 -2
0 -29 -16 -59 -35z"/>
</g>
</svg>
